<svg xmlns="http://www.w3.org/2000/svg" width="150" height="150" viewBox="0 0 150 150"><path fill="#60CAEF" d="M150 127.2c0 12.6-10.2 22.8-22.8 22.8H22.8C10.2 150 0 139.8 0 127.2V22.8C0 10.2 10.2 0 22.8 0h104.4C139.8 0 150 10.2 150 22.8v104.4z" opacity=".85"/><path fill="#FFEED7" d="M128.6 47.5c-3.5 1.6-7.3 2.6-11.3 3.1 4.1-2.4 7.2-6.3 8.6-10.9-3.8 2.3-8 3.9-12.5 4.8-3.6-3.8-8.7-6.2-14.3-6.2-10.9 0-19.7 8.8-19.7 19.6 0 1.5.2 3 .5 4.5-16.3-.8-30.8-8.6-40.5-20.5-1.7 2.9-2.7 6.3-2.7 9.9 0 6.8 3.5 12.8 8.7 16.4-3.2-.1-6.2-1-8.9-2.5v.2c0 9.5 6.8 17.5 15.8 19.3-1.6.4-3.4.7-5.2.7-1.3 0-2.5-.1-3.7-.4C46 93.4 53.3 99 61.9 99.2c-6.7 5.3-15.2 8.4-24.4 8.4-1.6 0-3.1-.1-4.7-.3 8.7 5.6 19 8.8 30.1 8.8 36.1 0 55.9-29.9 55.9-55.9 0-.8 0-1.7-.1-2.5 3.9-2.8 7.2-6.2 9.9-10.2z"/></svg>