<svg xmlns="http://www.w3.org/2000/svg" width="112" height="112" viewBox="0 0 112 112"><circle fill="#43BDEF" cx="56" cy="56" r="56"/><path fill="#FFF" d="M89.2 38.9c-2.4 1.1-5.1 1.8-7.8 2.1 2.8-1.7 5-4.3 6-7.4-2.6 1.5-5.5 2.7-8.6 3.3-2.5-2.6-6-4.2-9.9-4.2-7.5 0-13.6 6-13.6 13.4 0 1.1.1 2.1.3 3.1-11.3-.6-21.3-5.9-28.1-14-1.2 2-1.8 4.3-1.8 6.7 0 4.6 2.4 8.7 6.1 11.2-2.2-.1-4.3-.7-6.2-1.7v.2c0 1.7.3 3.4.9 4.9 1.7 4.2 5.4 7.4 10 8.3-1.1.3-2.3.5-3.6.5-.9 0-1.7-.1-2.6-.2C32 70.2 37 74 43 74.2c-4.7 3.6-10.5 5.7-16.9 5.7-1.1 0-2.2-.1-3.3-.2 6 3.8 13.2 6 20.9 6 21.3 0 34.4-14.7 37.8-30 .6-2.7.9-5.4.9-8.1v-1.7c2.7-1.9 5-4.3 6.8-7z"/></svg>