<svg xmlns="http://www.w3.org/2000/svg" width="150" height="150" viewBox="0 0 150 150"><path fill="#CA2128" d="M150 127.2c0 12.6-10.2 22.8-22.8 22.8H22.8C10.2 150 0 139.8 0 127.2V22.8C0 10.2 10.2 0 22.8 0h104.4C139.8 0 150 10.2 150 22.8v104.4z" opacity=".7"/><path fill="#FFEED7" d="M64 18.4h-6.5l-4.4 16.9-4.6-16.9h-6.8c1.4 4 2.8 8 4.1 12 2.1 6 3.4 10.5 3.9 13.6v17.5h6.5V44.1L64 18.4zm17.3 32.7V39.9c0-3.4-.6-5.9-1.8-7.6-1.6-2.2-3.9-3.3-6.8-3.3s-5.2 1.1-6.8 3.3c-1.2 1.6-1.8 4.1-1.8 7.6v11.3c0 3.4.6 5.9 1.8 7.6 1.6 2.2 3.9 3.3 6.8 3.3s5.2-1.1 6.8-3.3c1.2-1.7 1.8-4.3 1.8-7.7zm-5.8 1.1c0 3-.9 4.5-2.8 4.5s-2.8-1.5-2.8-4.5V38.7c0-3 .9-4.5 2.8-4.5s2.8 1.5 2.8 4.5v13.5zm27.3 9.3V29.4H97V54c-1.3 1.8-2.5 2.7-3.7 2.7-.8 0-1.2-.5-1.4-1.4-.1-.2-.1-.9-.1-2.3V29.4H86v25.4c0 2.3.2 3.8.5 4.8.6 1.6 1.9 2.4 3.7 2.4 2.1 0 4.3-1.3 6.6-4v3.5h6zM121.7 100.5c0 7.4 0 15.3-1.7 22.5-1.2 5.1-5.3 8.8-10.3 9.4-11.8 1.3-23.8 1.3-35.7 1.3-11.9 0-23.9 0-35.7-1.3-5-.6-9.1-4.3-10.3-9.4-1.7-7.2-1.7-15.1-1.7-22.5s0-15.3 1.7-22.5c1.2-5.1 5.3-8.8 10.3-9.4 11.8-1.3 23.8-1.3 35.7-1.3 11.9 0 23.9 0 35.7 1.3 5 .6 9.1 4.3 10.3 9.4 1.7 7.2 1.7 15.1 1.7 22.5z"/><path fill="#CA2128" d="M53.5 84.5v-6h-20v6h6.8v36.7h6.4V84.5h6.8zm11.7 36.6v-3.5c-2.3 2.6-4.5 3.9-6.6 3.9-1.9 0-3.1-.8-3.7-2.4-.3-1-.5-2.5-.5-4.7v-25h5.8v23.4c0 1.3 0 2.1.1 2.2.1.9.6 1.3 1.3 1.3 1.2 0 2.4-.9 3.6-2.7V89.4H71v31.8h-5.8zm21.9-9c0 2.9-.8 4.3-2.5 4.3-.9 0-1.9-.5-2.9-1.4V95.5c1-.9 1.9-1.4 2.9-1.4 1.7 0 2.5 1.5 2.5 4.3v13.7zm5.7-.5V98.9c0-3-.2-5.1-.6-6.4-.8-2.4-2.3-3.6-4.6-3.6-2.1 0-4.1 1.2-5.9 3.4V78.5h-5.8v42.7h5.8v-3.1c1.9 2.4 3.9 3.5 5.9 3.5 2.3 0 3.8-1.2 4.6-3.6.4-1.3.6-3.5.6-6.4zm16-10.1H103v-2.9c0-2.9 1-4.4 2.9-4.4s2.9 1.5 2.9 4.4v2.9zm5.8 9.5v-.8h-5.9c0 2.3-.1 3.6-.1 3.9-.3 1.5-1.2 2.3-2.6 2.3-2 0-2.9-1.5-2.9-4.4v-5.6h11.5v-6.6c0-3.4-.6-5.9-1.8-7.5-1.6-2.2-3.9-3.3-6.8-3.3s-5.2 1.1-6.9 3.3c-1.2 1.6-1.8 4.1-1.8 7.5v11.1c0 3.4.6 5.9 1.8 7.5 1.7 2.2 4 3.3 7 3.3s5.4-1.1 7-3.4c.7-1 1.1-2.2 1.3-3.5.1-.7.2-2 .2-3.8z" opacity=".7"/></svg>