<svg xmlns="http://www.w3.org/2000/svg" width="112" height="112" viewBox="0 0 112 112"><circle fill="#F15A4B" cx="56" cy="56" r="56"/><path fill="#FFF" d="M88.5 42.3s-.6-4.8-2.6-6.9c-2.5-2.8-5.4-2.8-6.6-2.9-9.3-.7-23.3-.7-23.3-.7s-13.9 0-23.2.7c-1.3.2-4.1.2-6.6 2.9-2 2.1-2.6 6.9-2.6 6.9s-.7 5.6-.7 11.2v5.3c0 5.6.7 11.2.7 11.2s.6 4.8 2.6 6.9c2.5 2.8 5.8 2.7 7.3 3 5.3.5 22.6.7 22.6.7s13.9 0 23.2-.7c1.3-.2 4.1-.2 6.6-2.9 2-2.1 2.6-6.9 2.6-6.9s.7-5.6.7-11.2v-5.3c0-5.7-.7-11.3-.7-11.3zM67.1 55.5l-17.9 9.7V45.8l8.1 4.4 9.8 5.3z"/></svg>